<svg xmlns="http://www.w3.org/2000/svg" width="524" height="81" fill="currentColor" class="h-4 w-auto text-slate-800" viewBox="0 0 524 81"><path d="M0 .244v80.51h34.022a18.26 18.26 0 0 1-6.693-30.082 18.27 18.27 0 0 1 25.847-.005 18.27 18.27 0 0 1 5.352 12.921 18.26 18.26 0 0 1-12.04 17.153H80.51V.244zM112.858 2.64h19.78l20.891 50.968h.889l20.891-50.969h19.78V78.5h-15.557V29.123h-.63L159.271 78.13h-10.594l-19.632-49.19h-.63v49.56h-15.557zM224.231 79.573q-5.445 0-9.704-1.889-4.26-1.926-6.742-5.667-2.445-3.779-2.445-9.408 0-4.742 1.741-7.964t4.742-5.186q3-1.964 6.815-2.963a52 52 0 0 1 8.075-1.408q4.964-.519 8.001-.963 3.037-.481 4.408-1.407 1.37-.927 1.37-2.742v-.222q0-3.518-2.222-5.445-2.185-1.926-6.223-1.926-4.26 0-6.779 1.89-2.518 1.852-3.333 4.666l-14.594-1.185q1.11-5.185 4.37-8.964 3.26-3.815 8.409-5.852 5.185-2.075 12.001-2.075 4.742 0 9.075 1.111 4.371 1.112 7.742 3.445a16.74 16.74 0 0 1 5.371 6.001q1.963 3.63 1.963 8.705v38.374h-14.965v-7.89h-.444a16.1 16.1 0 0 1-3.667 4.705q-2.297 2-5.519 3.148-3.224 1.11-7.446 1.111m4.519-10.89q3.483 0 6.149-1.37 2.667-1.408 4.186-3.778 1.518-2.37 1.518-5.371v-6.038q-.74.48-2.037.889-1.259.37-2.852.704-1.593.296-3.185.555-1.593.222-2.89.408-2.778.407-4.852 1.296t-3.223 2.408q-1.148 1.482-1.148 3.704 0 3.222 2.334 4.926 2.37 1.667 6 1.667M294.443 79.61q-8.779 0-15.113-3.556-6.297-3.593-9.705-10.149-3.408-6.593-3.408-15.594 0-8.779 3.408-15.41 3.408-6.63 9.594-10.334 6.222-3.704 14.594-3.704 5.63 0 10.483 1.815 4.889 1.779 8.519 5.371 3.667 3.593 5.704 9.038 2.038 5.409 2.038 12.668v4.334h-48.043V44.31h33.189q0-3.408-1.482-6.037a10.6 10.6 0 0 0-4.111-4.112q-2.593-1.518-6.038-1.519-3.593 0-6.371 1.667a11.7 11.7 0 0 0-4.297 4.408q-1.556 2.741-1.592 6.112v9.297q0 4.223 1.555 7.297 1.593 3.075 4.482 4.742t6.853 1.666q2.63 0 4.815-.74 2.185-.741 3.741-2.223t2.371-3.63l14.594.963q-1.111 5.26-4.556 9.186-3.407 3.89-8.816 6.075-5.37 2.148-12.408 2.148M378.192 37.828l-14.446.89a7.5 7.5 0 0 0-1.592-3.335q-1.223-1.518-3.223-2.407-1.964-.927-4.704-.926-3.668 0-6.186 1.555-2.519 1.52-2.519 4.075 0 2.037 1.63 3.445t5.593 2.26l10.298 2.074q8.297 1.703 12.371 5.482 4.075 3.777 4.075 9.927 0 5.592-3.297 9.815-3.26 4.223-8.964 6.594-5.667 2.333-13.075 2.333-11.298 0-18.002-4.704-6.667-4.74-7.816-12.89l15.52-.815q.703 3.445 3.408 5.26 2.704 1.778 6.927 1.778 4.148 0 6.667-1.593 2.556-1.63 2.593-4.186-.037-2.148-1.815-3.519-1.778-1.407-5.482-2.148L346.3 54.83q-8.334-1.666-12.409-5.779-4.037-4.11-4.037-10.482 0-5.482 2.963-9.446 3-3.964 8.408-6.111 5.445-2.15 12.742-2.149 10.779 0 16.965 4.556 6.224 4.557 7.26 12.41M419.688 21.604v11.853h-34.263V21.604zM393.203 7.973h15.78v53.043q0 2.186.666 3.408.667 1.185 1.852 1.666 1.223.482 2.816.482 1.11 0 2.222-.185 1.112-.222 1.704-.334l2.482 11.742q-1.186.37-3.334.852-2.148.519-5.223.63-5.704.222-10.001-1.519-4.26-1.74-6.63-5.408-2.371-3.666-2.334-9.26zM429.966 78.5V21.603h15.298v9.927h.593q1.555-5.297 5.223-8 3.667-2.742 8.445-2.742 1.185 0 2.556.148 1.37.15 2.408.408v14.001q-1.112-.334-3.075-.592a28 28 0 0 0-3.593-.26q-3.481 0-6.223 1.52a11.2 11.2 0 0 0-4.296 4.148q-1.557 2.667-1.556 6.148V78.5zM495.705 79.61q-8.631 0-14.928-3.667-6.26-3.705-9.667-10.297-3.408-6.63-3.408-15.372 0-8.816 3.408-15.41 3.408-6.63 9.667-10.297 6.297-3.704 14.928-3.704t14.89 3.704q6.297 3.668 9.705 10.298 3.408 6.593 3.408 15.409 0 8.742-3.408 15.372-3.408 6.593-9.705 10.297-6.26 3.667-14.89 3.667m.074-12.223q3.927 0 6.556-2.223 2.63-2.26 3.964-6.148 1.37-3.89 1.37-8.853 0-4.964-1.37-8.853-1.333-3.89-3.964-6.149-2.63-2.26-6.556-2.26-3.964 0-6.667 2.26-2.667 2.26-4.038 6.149-1.333 3.89-1.333 8.853t1.333 8.853q1.371 3.889 4.038 6.148 2.704 2.223 6.667 2.223"/></svg>